<svg xmlns="http://www.w3.org/2000/svg" version="1.1" xmlns:xlink="http://www.w3.org/1999/xlink" xmlns:svgjs="http://svgjs.dev/svgjs" width="1000" height="1000" viewBox="0 0 1000 1000"><rect width="1000" height="1000" fill="#ffffff"></rect><g transform="matrix(0.7,0,0,0.7,150.35851947450186,425.2438254786251)"><svg viewBox="0 0 406 87" data-background-color="#ffffff" preserveAspectRatio="xMidYMid meet" height="214" width="1000" xmlns="http://www.w3.org/2000/svg" xmlns:xlink="http://www.w3.org/1999/xlink"><g id="tight-bounds" transform="matrix(1,0,0,1,-0.20794124257326985,5.36441111775477)"><svg viewBox="0 0 395.52 76.27117776449047" height="76.27117776449047" width="395.52"><g><svg viewBox="0 0 493.3088045507434 95.12854855551689" height="76.27117776449047" width="395.52"><g transform="matrix(1,0,0,1,0,13.147288548555522)"><svg viewBox="0 0 395.52 68.83397145840584" height="68.83397145840584" width="395.52"><g id="textblocktransform"><svg viewBox="0 0 395.52 68.83397145840584" height="68.83397145840584" width="395.52" id="textblock"><g><svg viewBox="0 0 395.52 68.83397145840584" height="68.83397145840584" width="395.52"><g transform="matrix(1,0,0,1,0,0)"><svg width="395.52" viewBox="0.9500000476837158 -36 287.2699890136719 50" height="68.83397145840584" data-palette-color="#001f3f"><path d="M6.5 4.35L6.5 4.35Q3.75 4.35 2.35 3.43 0.95 2.5 0.95 0.35L0.95 0.35Q0.95 0.2 1.2 0.2L1.2 0.2Q1.55 0.2 2.45 0.45 3.35 0.7 5.9 0.7L5.9 0.7Q10.2 0.7 13.85-0.28 17.5-1.25 20.18-2.95 22.85-4.65 24.33-6.78 25.8-8.9 25.8-11.15L25.8-11.15Q25.8-13.2 24.65-14.45 23.5-15.7 21.63-16.35 19.75-17 17.55-17.23 15.35-17.45 13.2-17.45L13.2-17.45Q12.25-17.45 11.28-17.43 10.3-17.4 9.45-17.4L9.45-17.4Q8.3-13.35 7.2-9.25 6.1-5.15 4.95-1.3L4.95-1.3Q3.7-1.3 2.85-2 2-2.7 2-3.7L2-3.7Q2-4.3 2.25-5.1 2.5-5.9 2.7-6.55L2.7-6.55Q3-7.55 3.75-9.9 4.5-12.25 5.58-15.4 6.65-18.55 7.95-22 9.25-25.45 10.63-28.75 12-32.05 13.3-34.6L13.3-34.6Q11.2-34.25 9.78-33.6 8.35-32.95 7.55-32.43 6.75-31.9 6.4-31.9L6.4-31.9Q6.15-31.9 5.78-32.13 5.4-32.35 5.1-32.68 4.8-33 4.8-33.25L4.8-33.25Q7.3-34.3 10.03-35.15 12.75-36 16.65-36L16.65-36Q18.3-36 20.3-35.73 22.3-35.45 24.1-34.63 25.9-33.8 27.05-32.23 28.2-30.65 28.2-28.05L28.2-28.05Q28.2-25.6 27.15-23.88 26.1-22.15 24.4-21.03 22.7-19.9 20.7-19.25 18.7-18.6 16.75-18.3L16.75-18.3Q20.45-18.1 22.73-17.25 25-16.4 26.18-15.23 27.35-14.05 27.75-12.75 28.15-11.45 28.15-10.25L28.15-10.25Q28.15-7.35 26.65-5 25.15-2.65 22.7-0.9 20.25 0.85 17.35 2.02 14.45 3.2 11.6 3.78 8.75 4.35 6.5 4.35ZM9.75-18.55L9.75-18.55Q12.5-18.65 15.23-19.18 17.95-19.7 20.2-20.85 22.45-22 23.83-23.85 25.2-25.7 25.2-28.45L25.2-28.45Q25.2-31.05 23.98-32.45 22.75-33.85 20.83-34.4 18.9-34.95 16.75-34.95L16.75-34.95Q16.5-34.95 16.28-34.95 16.05-34.95 15.8-34.9L15.8-34.9Q14-31.4 12.53-27.2 11.05-23 9.75-18.55ZM39.05 1.3L39.05 1.3Q37.35 1.3 36.37 0.4 35.4-0.5 35.4-1.95L35.4-1.95Q35.4-3.45 36.1-5.1 36.8-6.75 37.47-8.38 38.15-10 38.15-11.3L38.15-11.3Q38.15-12.9 37.22-13.68 36.3-14.45 35.35-15.1L35.35-15.1Q34.2-12.15 32.95-9.5 31.7-6.85 30.9-5.5L30.9-5.5 30.45-6.35Q31.15-7.65 32.27-10.15 33.4-12.65 34.5-15.85L34.5-15.85Q34-16.35 34-17.05L34-17.05Q34-18.55 34.85-19.5 35.7-20.45 36.1-20.45L36.1-20.45Q36.65-20.45 36.72-19.98 36.8-19.5 36.8-19.25L36.8-19.25Q36.8-19 36.52-18.28 36.25-17.55 36.25-17.4L36.25-17.4Q36.25-16.7 37.02-16.13 37.8-15.55 38.8-14.83 39.8-14.1 40.57-13.08 41.35-12.05 41.35-10.45L41.35-10.45Q41.35-8.95 40.72-7.4 40.1-5.85 39.47-4.45 38.85-3.05 38.85-2L38.85-2Q38.85-1.1 39.3-0.8 39.75-0.5 40.35-0.5L40.35-0.5Q41.55-0.5 42.82-1.25 44.1-2 45.3-3.15 46.5-4.3 47.45-5.58 48.4-6.85 48.85-7.95L48.85-7.95 49.5-7.45Q48.55-5.35 46.9-3.33 45.25-1.3 43.22 0 41.2 1.3 39.05 1.3ZM51.25 1.6L51.25 1.6Q49.09 1.6 48.2 0.28 47.3-1.05 47.3-2.95L47.3-2.95Q47.3-4.5 47.8-6.15 48.3-7.8 49.12-9.25 49.95-10.7 50.97-11.6 52-12.5 53.05-12.5L53.05-12.5Q53.3-12.5 53.57-12.43 53.84-12.35 54.09-12.25L54.09-12.25Q53.65-11.85 53.02-10.78 52.4-9.7 51.84-8.33 51.3-6.95 50.92-5.6 50.55-4.25 50.55-3.3L50.55-3.3Q50.55-1.8 51.05-1.13 51.55-0.45 52.34-0.45L52.34-0.45Q53.4-0.45 54.84-1.58 56.3-2.7 57.7-4.45L57.7-4.45Q56.3-5.6 55.52-7.48 54.75-9.35 54.75-11.3L54.75-11.3Q54.75-12.95 55.32-14.4 55.9-15.85 57-16.73 58.09-17.6 59.65-17.6L59.65-17.6Q61.7-17.6 62.4-16.5 63.09-15.4 63.09-13.75L63.09-13.75Q63.09-11.8 62.15-9.43 61.2-7.05 59.75-4.85L59.75-4.85Q60.65-4.35 61.65-4.35L61.65-4.35Q62.45-4.35 63.45-4.67 64.45-5 65.42-5.8 66.4-6.6 67-7.95L67-7.95 67.59-7.45Q66.59-5.1 64.77-4.13 62.95-3.15 61.3-3.15L61.3-3.15Q60.65-3.15 60.05-3.28 59.45-3.4 58.9-3.65L58.9-3.65Q57.2-1.4 55.17 0.1 53.15 1.6 51.25 1.6ZM58.59-5.75L58.59-5.75Q59.84-7.6 60.67-9.63 61.5-11.65 61.5-13.45L61.5-13.45Q61.5-14.9 61.07-15.58 60.65-16.25 60-16.25L60-16.25Q59-16.25 57.95-14.8 56.9-13.35 56.9-11.15L56.9-11.15Q56.9-9.7 57.32-8.22 57.75-6.75 58.59-5.75ZM71.39 2.8L71.39 2.8Q68.99 2.8 67.39 1.2 65.79-0.4 65.79-3.6L65.79-3.6Q65.79-6.1 66.77-8.47 67.74-10.85 69.34-12.75 70.94-14.65 72.89-15.78 74.84-16.9 76.74-16.9L76.74-16.9Q78.79-16.9 79.54-15.7 80.29-14.5 80.29-13.2L80.29-13.2Q80.29-11.75 79.62-10.65 78.94-9.55 77.79-9.55L77.79-9.55Q76.94-9.55 76.34-10.3L76.34-10.3Q77.09-10.7 77.64-11.93 78.19-13.15 78.19-14.25L78.19-14.25Q78.19-14.85 77.97-15.18 77.74-15.5 77.09-15.5L77.09-15.5Q75.74-15.5 74.32-14.3 72.89-13.1 71.67-11.2 70.44-9.3 69.67-7.2 68.89-5.1 68.89-3.25L68.89-3.25Q68.89-1.7 69.64-0.4 70.39 0.9 72.54 0.9L72.54 0.9Q74.54 0.9 76.57-0.2 78.59-1.3 80.34-3.35 82.09-5.4 83.14-8.15L83.14-8.15 83.79-7.65Q82.64-4.65 80.64-2.27 78.64 0.1 76.24 1.45 73.84 2.8 71.39 2.8ZM85.64 1.6L85.64 1.6Q83.49 1.6 82.59 0.28 81.69-1.05 81.69-2.95L81.69-2.95Q81.69-4.5 82.19-6.15 82.69-7.8 83.52-9.25 84.34-10.7 85.37-11.6 86.39-12.5 87.44-12.5L87.44-12.5Q87.69-12.5 87.97-12.43 88.24-12.35 88.49-12.25L88.49-12.25Q88.04-11.85 87.42-10.78 86.79-9.7 86.24-8.33 85.69-6.95 85.32-5.6 84.94-4.25 84.94-3.3L84.94-3.3Q84.94-1.8 85.44-1.13 85.94-0.45 86.74-0.45L86.74-0.45Q87.79-0.45 89.24-1.58 90.69-2.7 92.09-4.45L92.09-4.45Q90.69-5.6 89.92-7.48 89.14-9.35 89.14-11.3L89.14-11.3Q89.14-12.95 89.72-14.4 90.29-15.85 91.39-16.73 92.49-17.6 94.04-17.6L94.04-17.6Q96.09-17.6 96.79-16.5 97.49-15.4 97.49-13.75L97.49-13.75Q97.49-11.8 96.54-9.43 95.59-7.05 94.14-4.85L94.14-4.85Q95.04-4.35 96.04-4.35L96.04-4.35Q96.84-4.35 97.84-4.67 98.84-5 99.82-5.8 100.79-6.6 101.39-7.95L101.39-7.95 101.99-7.45Q100.99-5.1 99.17-4.13 97.34-3.15 95.69-3.15L95.69-3.15Q95.04-3.15 94.44-3.28 93.84-3.4 93.29-3.65L93.29-3.65Q91.59-1.4 89.57 0.1 87.54 1.6 85.64 1.6ZM92.99-5.75L92.99-5.75Q94.24-7.6 95.07-9.63 95.89-11.65 95.89-13.45L95.89-13.45Q95.89-14.9 95.47-15.58 95.04-16.25 94.39-16.25L94.39-16.25Q93.39-16.25 92.34-14.8 91.29-13.35 91.29-11.15L91.29-11.15Q91.29-9.7 91.72-8.22 92.14-6.75 92.99-5.75ZM103.39 1.5L103.39 1.5Q102.54 1.5 101.66 1.07 100.79 0.65 100.21-0.3 99.64-1.25 99.64-2.7L99.64-2.7Q99.64-4.35 100.44-6.4 101.24-8.45 102.59-10.48 103.94-12.5 105.69-14.23 107.44-15.95 109.34-16.98 111.24-18 113.09-18L113.09-18Q114.14-18 114.71-17.63 115.29-17.25 115.29-16.45L115.29-16.45Q115.29-16.25 115.26-16.1 115.24-15.95 115.19-15.75L115.19-15.75Q114.94-16.15 114.46-16.32 113.99-16.5 113.29-16.5L113.29-16.5Q111.69-16.5 110.16-15.53 108.64-14.55 107.36-12.98 106.09-11.4 105.14-9.6 104.19-7.8 103.66-6.13 103.14-4.45 103.14-3.3L103.14-3.3Q103.14-2.2 103.64-1.55 104.14-0.9 104.94-0.9L104.94-0.9Q106.29-0.9 108.21-2.6 110.14-4.3 112.14-7.4 114.14-10.5 115.74-14.65L115.74-14.65Q116.84-17.55 118.01-20.55 119.19-23.55 120.39-26.33 121.59-29.1 122.71-31.28 123.84-33.45 124.86-34.73 125.89-36 126.69-36L126.69-36Q127.09-36 127.39-35.68 127.69-35.35 127.69-34.85L127.69-34.85Q127.69-34.05 126.86-32.13 126.04-30.2 124.71-27.53 123.39-24.85 121.94-21.7 120.49-18.55 119.16-15.3 117.84-12.05 117.01-9.03 116.19-6 116.19-3.5L116.19-3.5Q116.19-2.1 116.34-1.4 116.49-0.7 117.34-0.7L117.34-0.7Q118.39-0.7 119.79-1.6 121.19-2.5 122.59-4.15 123.99-5.8 125.04-8.1L125.04-8.1 125.64-7.65Q124.69-5.1 123.04-3.08 121.39-1.05 119.51 0.13 117.64 1.3 115.94 1.3L115.94 1.3Q114.09 1.3 113.36 0.08 112.64-1.15 112.64-2.45L112.64-2.45Q112.64-3.3 112.89-4.7 113.14-6.1 113.59-7.8L113.59-7.8Q111.99-5.15 110.19-3.03 108.39-0.9 106.66 0.3 104.94 1.5 103.39 1.5ZM129.49 2.2L129.49 2.2Q126.44 2.2 124.91 0.53 123.39-1.15 123.39-3.6L123.39-3.6Q123.39-5.85 124.51-8.35 125.64-10.85 127.51-13.05 129.39-15.25 131.64-16.63 133.89-18 136.09-18L136.09-18Q137.24-18 138.21-17.4 139.19-16.8 139.19-14.95L139.19-14.95Q139.19-13.05 138.06-11.38 136.94-9.7 135.11-8.4 133.29-7.1 131.11-6.28 128.94-5.45 126.79-5.25L126.79-5.25Q126.69-4.75 126.64-4.3 126.59-3.85 126.59-3.45L126.59-3.45Q126.59-2.7 126.76-1.95 126.94-1.2 127.39-0.58 127.84 0.05 128.61 0.4 129.39 0.75 130.54 0.75L130.54 0.75Q132.69 0.75 134.79-0.48 136.89-1.7 138.69-3.7 140.49-5.7 141.74-8.1L141.74-8.1 142.34-7.65Q140.99-4.65 138.91-2.45 136.84-0.25 134.41 0.98 131.99 2.2 129.49 2.2ZM127.04-6.2L127.04-6.2Q128.39-6.65 130.09-7.53 131.79-8.4 133.36-9.6 134.94-10.8 135.96-12.25 136.99-13.7 136.99-15.3L136.99-15.3Q136.99-15.85 136.79-16.15 136.59-16.45 135.94-16.45L135.94-16.45Q134.74-16.45 133.39-15.53 132.04-14.6 130.79-13.1 129.54-11.6 128.54-9.8 127.54-8 127.04-6.2ZM164.68 4.35L164.68 4.35Q161.13 4.35 158.96 2.58 156.78 0.8 155.81-2 154.83-4.8 154.83-7.85L154.83-7.85Q154.83-11.8 156.03-15.8 157.23-19.8 159.31-23.43 161.38-27.05 164.03-29.88 166.68-32.7 169.61-34.33 172.53-35.95 175.38-35.95L175.38-35.95Q177.43-35.95 178.71-34.98 179.98-34 179.98-31.65L179.98-31.65Q179.98-30.2 179.48-28.38 178.98-26.55 178.13-24.88 177.28-23.2 176.26-22.1 175.23-21 174.18-21L174.18-21Q173.78-21 173.36-21.25 172.93-21.5 172.63-22.15L172.63-22.15Q173.38-23 174.31-24.28 175.23-25.55 176.08-26.98 176.93-28.4 177.46-29.78 177.98-31.15 177.98-32.2L177.98-32.2Q177.98-33.2 177.41-33.83 176.83-34.45 175.53-34.45L175.53-34.45Q173.38-34.45 171.06-32.7 168.73-30.95 166.56-28.03 164.38-25.1 162.63-21.5 160.88-17.9 159.86-14.15 158.83-10.4 158.83-7L158.83-7Q158.83-4.55 159.53-2.33 160.23-0.1 161.81 1.28 163.38 2.65 165.88 2.65L165.88 2.65Q168.53 2.65 171.16 1.15 173.78-0.35 175.98-2.8 178.18-5.25 179.48-8.1L179.48-8.1 180.18-7.6Q178.53-4.35 176.18-1.63 173.83 1.1 170.93 2.73 168.03 4.35 164.68 4.35ZM180.83 2.35L180.83 2.35Q179.28 2.35 178.2 1.33 177.13 0.3 177.13-1.8L177.13-1.8Q177.13-3.6 177.93-5.68 178.73-7.75 180.13-9.78 181.53-11.8 183.3-13.48 185.08-15.15 187.05-16.15 189.03-17.15 190.98-17.15L190.98-17.15Q192.93-17.15 194.23-16.13 195.53-15.1 195.53-13.4L195.53-13.4Q195.53-12.15 194.85-11.7 194.18-11.25 193.08-11.25L193.08-11.25Q193.18-11.65 193.25-12.13 193.33-12.6 193.33-13L193.33-13Q193.33-14.15 192.78-14.98 192.23-15.8 190.88-15.8L190.88-15.8Q189.48-15.8 188.03-14.83 186.58-13.85 185.23-12.23 183.88-10.6 182.83-8.7 181.78-6.8 181.18-4.95 180.58-3.1 180.58-1.65L180.58-1.65Q180.58 0.3 181.93 0.3L181.93 0.3Q183.08 0.3 184.43-0.78 185.78-1.85 187.2-3.53 188.63-5.2 189.93-7 191.23-8.8 192.23-10.3L192.23-10.3Q192.43-10.6 192.48-10.6L192.48-10.6Q192.78-10.55 193.25-10.4 193.73-10.25 194.08-10 194.43-9.75 194.43-9.35L194.43-9.35Q194.43-8.9 193.98-8.13 193.53-7.35 192.98-6.35 192.43-5.35 191.98-4.33 191.53-3.3 191.53-2.4L191.53-2.4Q191.53-1.65 191.93-0.93 192.33-0.2 193.23-0.2L193.23-0.2Q194.58-0.2 196.78-2.18 198.98-4.15 201.23-8.1L201.23-8.1 201.73-7.6Q200.68-4.9 199.03-2.85 197.38-0.8 195.5 0.35 193.63 1.5 191.83 1.5L191.83 1.5Q189.98 1.5 189.1 0.4 188.23-0.7 188.23-2L188.23-2Q188.23-2.3 188.28-2.68 188.33-3.05 188.38-3.45L188.38-3.45Q186.23-0.55 184.45 0.9 182.68 2.35 180.83 2.35ZM208.88 1.3L208.88 1.3Q207.18 1.3 206.2 0.4 205.23-0.5 205.23-1.95L205.23-1.95Q205.23-3.45 205.93-5.1 206.63-6.75 207.3-8.38 207.98-10 207.98-11.3L207.98-11.3Q207.98-12.9 207.05-13.68 206.13-14.45 205.18-15.1L205.18-15.1Q204.03-12.15 202.78-9.5 201.53-6.85 200.73-5.5L200.73-5.5 200.28-6.35Q200.98-7.65 202.1-10.15 203.23-12.65 204.33-15.85L204.33-15.85Q203.83-16.35 203.83-17.05L203.83-17.05Q203.83-18.55 204.68-19.5 205.53-20.45 205.93-20.45L205.93-20.45Q206.48-20.45 206.55-19.98 206.63-19.5 206.63-19.25L206.63-19.25Q206.63-19 206.35-18.28 206.08-17.55 206.08-17.4L206.08-17.4Q206.08-16.7 206.85-16.13 207.63-15.55 208.63-14.83 209.63-14.1 210.4-13.08 211.18-12.05 211.18-10.45L211.18-10.45Q211.18-8.95 210.55-7.4 209.93-5.85 209.3-4.45 208.68-3.05 208.68-2L208.68-2Q208.68-1.1 209.13-0.8 209.58-0.5 210.18-0.5L210.18-0.5Q211.38-0.5 212.65-1.25 213.93-2 215.13-3.15 216.33-4.3 217.28-5.58 218.23-6.85 218.68-7.95L218.68-7.95 219.33-7.45Q218.38-5.35 216.73-3.33 215.08-1.3 213.05 0 211.03 1.3 208.88 1.3ZM221.87 2.3L221.87 2.3Q219.72 2.3 218.57 1.05 217.42-0.2 217.42-2.65L217.42-2.65Q217.42-4.85 218.25-8.08 219.07-11.3 220.32-14.7L220.32-14.7Q219.82-14.8 219.37-14.88 218.92-14.95 218.52-15.1L218.52-15.1 218.52-16Q218.92-15.95 219.47-15.9 220.02-15.85 220.72-15.8L220.72-15.8Q221.77-18.5 222.97-21.03 224.17-23.55 225.35-25.53 226.52-27.5 227.6-28.68 228.67-29.85 229.42-29.85L229.42-29.85Q229.82-29.85 230.15-29.58 230.47-29.3 230.47-28.75L230.47-28.75Q230.47-27.9 229.42-25.98 228.37-24.05 226.82-21.4 225.27-18.75 223.82-15.65L223.82-15.65Q224.27-15.65 224.75-15.65 225.22-15.65 225.67-15.65L225.67-15.65Q227.32-15.65 229.15-15.7 230.97-15.75 232.82-15.95L232.82-15.95 232.82-15.05Q230.07-14.75 227.9-14.6 225.72-14.45 224.02-14.45L224.02-14.45Q223.82-14.45 223.65-14.45 223.47-14.45 223.27-14.45L223.27-14.45Q222.12-11.8 221.32-9 220.52-6.2 220.52-3.55L220.52-3.55Q220.52-1.4 221.17-0.48 221.82 0.45 223.32 0.45L223.32 0.45Q225.92 0.45 228.42-1.85 230.92-4.15 232.82-8.1L232.82-8.1 233.47-7.6Q232.27-4.8 230.45-2.55 228.62-0.3 226.42 1 224.22 2.3 221.87 2.3ZM235.47 1.3L235.47 1.3Q233.52 1.3 232.57 0.08 231.62-1.15 231.62-2.9L231.62-2.9Q231.62-4.05 232.05-5.8 232.47-7.55 233.17-9.47 233.87-11.4 234.8-13.1 235.72-14.8 236.77-15.88 237.82-16.95 238.82-16.95L238.82-16.95Q239.27-16.95 239.6-16.68 239.92-16.4 239.92-15.85L239.92-15.85Q239.92-15.25 239.15-13.9 238.37-12.55 237.32-10.8 236.27-9.05 235.5-7.13 234.72-5.2 234.72-3.45L234.72-3.45Q234.72-1.65 235.32-1.05 235.92-0.45 237.17-0.45L237.17-0.45Q238.87-0.45 240.8-2.15 242.72-3.85 244.87-8.1L244.87-8.1 245.32-7.6Q243.87-3.3 241.15-1 238.42 1.3 235.47 1.3ZM241.47-21.6L241.47-21.6Q240.67-21.6 240.05-22 239.42-22.4 239.42-23.25L239.42-23.25Q239.42-24.3 240.65-25.08 241.87-25.85 243.07-25.85L243.07-25.85Q243.82-25.85 244.27-25.5 244.72-25.15 244.72-24.3L244.72-24.3Q244.72-23.35 243.7-22.48 242.67-21.6 241.47-21.6ZM260.07 1L260.07 1Q258.32 1 257.44 0.1 256.57-0.8 256.57-2.2L256.57-2.2Q256.57-3.25 256.94-4.4 257.32-5.55 257.67-6.78 258.02-8 258.02-9.15L258.02-9.15Q258.02-10.55 257.44-11.08 256.87-11.6 256.02-11.6L256.02-11.6Q254.47-11.6 252.87-10.33 251.27-9.05 249.77-7.08 248.27-5.1 246.97-3 245.67-0.9 244.67 0.75L244.67 0.75Q243.87 0.75 243.14 0.48 242.42 0.2 242.02-0.35L242.02-0.35Q242.02-0.6 242.54-1.9 243.07-3.2 243.77-5.1 244.47-7 245.02-9 245.57-11 245.57-12.65L245.57-12.65Q245.87-13 246.52-13.35 247.17-13.7 247.87-13.7L247.87-13.7Q249.22-13.7 249.22-12.4L249.22-12.4Q249.22-11.6 248.77-9.73 248.32-7.85 247.62-5.8L247.62-5.8Q248.97-7.85 250.64-9.88 252.32-11.9 254.22-13.25 256.12-14.6 258.02-14.6L258.02-14.6Q259.97-14.6 260.84-13.2 261.72-11.8 261.72-10.1L261.72-10.1Q261.72-8.55 261.22-7.23 260.72-5.9 260.19-4.67 259.67-3.45 259.67-2.2L259.67-2.2Q259.67-1.15 260.09-0.73 260.52-0.3 261.17-0.3L261.17-0.3Q262.42-0.3 263.67-1.48 264.92-2.65 266.09-4.45 267.27-6.25 268.17-8.1L268.17-8.1 268.72-7.45Q267.67-5 266.37-3.1 265.07-1.2 263.52-0.1 261.97 1 260.07 1ZM269.12 14L269.12 14Q268.02 14 267.12 13.33 266.22 12.65 266.22 11.1L266.22 11.1Q266.22 9.6 267.14 8.33 268.07 7.05 269.52 5.98 270.97 4.9 272.69 4 274.42 3.1 275.97 2.3L275.97 2.3Q276.67 0.55 277.29-1.48 277.92-3.5 278.52-5.95L278.52-5.95Q276.62-3.2 274.54-1.38 272.47 0.45 270.37 0.45L270.37 0.45Q268.57 0.45 267.59-0.9 266.62-2.25 266.62-4.4L266.62-4.4Q266.62-7 267.89-9.35 269.17-11.7 271.22-13.5 273.27-15.3 275.57-16.32 277.87-17.35 279.87-17.35L279.87-17.35Q281.32-17.35 281.94-16.88 282.57-16.4 282.57-15.75L282.57-15.75Q282.57-15.3 282.32-15.05 282.07-14.8 281.97-14.75L281.97-14.75Q281.72-15.15 281.22-15.33 280.72-15.5 279.97-15.5L279.97-15.5Q278.02-15.5 276.19-14.35 274.37-13.2 272.97-11.4 271.57-9.6 270.74-7.68 269.92-5.75 269.92-4.15L269.92-4.15Q269.92-2.95 270.39-2.33 270.87-1.7 271.67-1.7L271.67-1.7Q273.12-1.7 275.14-3.63 277.17-5.55 279.07-8.3L279.07-8.3Q279.22-9 279.34-9.55 279.47-10.1 279.67-10.95L279.67-10.95Q279.82-11.65 280.39-12.58 280.97-13.5 282.22-13.5L282.22-13.5Q282.47-13.5 282.72-13.48 282.97-13.45 283.27-13.35L283.27-13.35Q283.27-12.55 282.79-10.43 282.32-8.3 281.44-5.48 280.57-2.65 279.42 0.35L279.42 0.35Q281.07-0.45 282.64-1.7 284.22-2.95 285.52-4.58 286.82-6.2 287.57-8.1L287.57-8.1 288.22-7.6Q287.47-5.35 285.82-3.5 284.17-1.65 282.29-0.3 280.42 1.05 278.87 1.8L278.87 1.8Q277.47 5.15 275.92 7.93 274.37 10.7 272.69 12.35 271.02 14 269.12 14ZM268.97 12.4L268.97 12.4Q269.97 12.4 271.69 10.43 273.42 8.45 275.42 3.65L275.42 3.65Q273.42 4.65 271.69 5.73 269.97 6.8 268.87 8 267.77 9.2 267.77 10.65L267.77 10.65Q267.77 11.45 268.12 11.93 268.47 12.4 268.97 12.4Z" opacity="1" transform="matrix(1,0,0,1,0,0)" fill="#001f3f" class="wordmark-text-0" data-fill-palette-color="primary" id="text-0"></path></svg></g></svg></g></svg></g></svg></g><g transform="matrix(1,0,0,1,411.77004864601463,0)"><svg viewBox="0 0 81.53875590472876 95.12854855551689" height="95.12854855551689" width="81.53875590472876"><g><svg xmlns="http://www.w3.org/2000/svg" xmlns:xlink="http://www.w3.org/1999/xlink" version="1.1" x="0" y="0" viewBox="4 2 24 28" enable-background="new 0 0 32 32" xml:space="preserve" height="95.12854855551689" width="81.53875590472876" class="icon-icon-0" data-fill-palette-color="accent" id="icon-0"><g display="none" fill="#001f3f" data-fill-palette-color="accent"><path display="inline" d="M16 0C7.162 0 0 7.163 0 16 0 24.836 7.162 32 16 32 24.836 32 32 24.836 32 16 32 7.163 24.836 0 16 0zM16 28C9.383 28 4 22.617 4 16S9.383 4 16 4c3.254 0 6.205 1.307 8.369 3.417l-4.58 3.97c-1.037-0.851-2.344-1.383-3.789-1.383-3.315 0-6 2.687-6 6s2.686 6 6 6c3.312 0 6-2.687 6-6 0-1.445-0.533-2.753-1.383-3.789l3.969-4.58C26.695 9.798 28 12.748 28 16 28 22.617 22.617 28 16 28zM16 18.004c1.103 0 2-0.896 2-2 0-0.221-0.061-0.425-0.127-0.623l1.42-1.639C19.736 14.386 20 15.164 20 16.004c0 2.206-1.795 4-4 4-2.207 0-4-1.794-4-4 0-2.206 1.793-4 4-4 0.84 0 1.617 0.263 2.262 0.706l-1.639 1.42c-0.199-0.066-0.402-0.126-0.623-0.126-1.106 0-2 0.896-2 2S14.895 18.004 16 18.004zM15 24.004c-0.553 0-1 0.447-1 1s0.447 1 1 1c0.553 0 1-0.447 1-1S15.553 24.004 15 24.004zM9 10.004c-0.553 0-1 0.447-1 1 0 0.553 0.447 1 1 1 0.553 0 1-0.447 1-1C10 10.451 9.553 10.004 9 10.004zM25 10.004c-0.553 0-1 0.447-1 1 0 0.553 0.447 1 1 1 0.553 0 1-0.447 1-1C26 10.451 25.553 10.004 25 10.004z" fill="#001f3f" data-fill-palette-color="accent"></path></g><g display="none" fill="#001f3f" data-fill-palette-color="accent"><path display="inline" d="M24 0H8C3.582 0 0 3.582 0 8v16c0 4.418 3.582 8 8 8h16c4.418 0 8-3.582 8-8V8C32 3.582 28.418 0 24 0zM16 20c-2.209 0-4-1.791-4-4s1.791-4 4-4c2.209 0 4 1.791 4 4S18.209 20 16 20z" fill="#001f3f" data-fill-palette-color="accent"></path></g><g fill="#001f3f" data-fill-palette-color="accent"><path fill-rule="evenodd" clip-rule="evenodd" d="M26 2l-1.5 6H4l2 14h18l1.715-12H26l2-8H26zM9 24c-1.656 0-3 1.344-3 3 0 1.656 1.344 3 3 3 1.656 0 3-1.344 3-3C12 25.344 10.656 24 9 24zM21 24c-1.656 0-3 1.344-3 3 0 1.656 1.344 3 3 3 1.656 0 3-1.344 3-3C24 25.344 22.656 24 21 24z" fill="#001f3f" data-fill-palette-color="accent"></path></g></svg></g></svg></g></svg></g><defs></defs></svg><rect width="395.52" height="76.27117776449047" fill="none" stroke="none" visibility="hidden"></rect></g></svg></g></svg>